<mxfile host="app.diagrams.net" modified="2023-12-14T19:12:20.213Z" agent="Mozilla/5.0 (Windows NT 10.0; Win64; x64) AppleWebKit/537.36 (KHTML, like Gecko) Chrome/120.0.0.0 Safari/537.36" etag="NQ-lpQ6hOy6YhsUMQZt-" version="22.1.9" type="github">
  <diagram name="Page-1" id="ajofNfoX7y1gAf4j18_G">
    <mxGraphModel dx="1050" dy="665" grid="1" gridSize="10" guides="1" tooltips="1" connect="1" arrows="1" fold="1" page="1" pageScale="1" pageWidth="850" pageHeight="1100" math="0" shadow="0">
      <root>
        <mxCell id="0" />
        <mxCell id="1" parent="0" />
        <mxCell id="QEvCKpM-7lKXbSm6Cstn-6" style="edgeStyle=orthogonalEdgeStyle;rounded=0;orthogonalLoop=1;jettySize=auto;html=1;exitX=0.5;exitY=1;exitDx=0;exitDy=0;entryX=0.5;entryY=0;entryDx=0;entryDy=0;" edge="1" parent="1" source="QEvCKpM-7lKXbSm6Cstn-1" target="QEvCKpM-7lKXbSm6Cstn-2">
          <mxGeometry relative="1" as="geometry" />
        </mxCell>
        <mxCell id="QEvCKpM-7lKXbSm6Cstn-7" style="edgeStyle=orthogonalEdgeStyle;rounded=0;orthogonalLoop=1;jettySize=auto;html=1;entryX=0.5;entryY=0;entryDx=0;entryDy=0;" edge="1" parent="1" source="QEvCKpM-7lKXbSm6Cstn-1" target="QEvCKpM-7lKXbSm6Cstn-4">
          <mxGeometry relative="1" as="geometry" />
        </mxCell>
        <mxCell id="QEvCKpM-7lKXbSm6Cstn-9" style="edgeStyle=orthogonalEdgeStyle;rounded=0;orthogonalLoop=1;jettySize=auto;html=1;exitX=0.5;exitY=1;exitDx=0;exitDy=0;entryX=0.5;entryY=0;entryDx=0;entryDy=0;" edge="1" parent="1" source="QEvCKpM-7lKXbSm6Cstn-1" target="QEvCKpM-7lKXbSm6Cstn-8">
          <mxGeometry relative="1" as="geometry" />
        </mxCell>
        <mxCell id="QEvCKpM-7lKXbSm6Cstn-1" value="&lt;font style=&quot;font-size: 14px;&quot;&gt;&lt;b&gt;Predicting stock market prices&lt;/b&gt;&lt;/font&gt;" style="rounded=1;whiteSpace=wrap;html=1;" vertex="1" parent="1">
          <mxGeometry x="290" y="200" width="260" height="50" as="geometry" />
        </mxCell>
        <mxCell id="QEvCKpM-7lKXbSm6Cstn-2" value="&lt;b&gt;&lt;font style=&quot;font-size: 14px;&quot;&gt;Feature Base Model&lt;/font&gt;&lt;/b&gt;" style="rounded=1;whiteSpace=wrap;html=1;" vertex="1" parent="1">
          <mxGeometry x="140" y="340" width="160" height="60" as="geometry" />
        </mxCell>
        <mxCell id="QEvCKpM-7lKXbSm6Cstn-4" value="&lt;font style=&quot;font-size: 14px;&quot;&gt;&lt;b&gt;Graph Base Model&lt;/b&gt;&lt;/font&gt;" style="rounded=1;whiteSpace=wrap;html=1;" vertex="1" parent="1">
          <mxGeometry x="540" y="340" width="140" height="60" as="geometry" />
        </mxCell>
        <mxCell id="QEvCKpM-7lKXbSm6Cstn-8" value="&lt;font style=&quot;font-size: 14px;&quot;&gt;&lt;b&gt;LLM Model&lt;/b&gt;&lt;/font&gt;" style="rounded=1;whiteSpace=wrap;html=1;" vertex="1" parent="1">
          <mxGeometry x="350" y="340" width="140" height="60" as="geometry" />
        </mxCell>
        <mxCell id="QEvCKpM-7lKXbSm6Cstn-10" value="" style="rounded=1;whiteSpace=wrap;html=1;" vertex="1" parent="1">
          <mxGeometry x="60" y="490" width="120" height="60" as="geometry" />
        </mxCell>
      </root>
    </mxGraphModel>
  </diagram>
</mxfile>
